<svg width="204" height="453" fill="none" xmlns="http://www.w3.org/2000/svg"><path opacity=".8" d="m11.36 437.165-2.065-3.574 5.132-2.965-2.26-3.911-8.981 5.189 6.388 11.053 8.98-5.189-2.062-3.568-5.132 2.965Zm12.298-11.874 3.588-2.073-2.26-3.911-8.982 5.19 2.26 3.911c1.908.527 2.872.749 5.63 1.51l-3.563 2.065 2.062 3.568 8.981-5.19-2.062-3.569-5.654-1.501Zm12.73-7.355 3.587-2.073-2.26-3.911-8.982 5.19 2.26 3.911c1.908.526 2.873.748 5.631 1.51l-3.564 2.064 2.062 3.568 8.982-5.19-2.063-3.568-5.653-1.501Z" fill="#AA43A2"/><g filter="url('#filter0_d_120_260')"><circle cx="97.897" cy="106.897" r="6.161" transform="rotate(-110 97.897 106.897)" fill="url('#paint0_linear_120_260')"/></g><g filter="url('#filter1_f_120_260')"><circle cx="26.437" cy="212.471" r="4.236" transform="rotate(-110.165 26.437 212.471)" fill="url('#paint1_linear_120_260')"/></g><g clip-path="url('#clip0_120_260')" fill="#AA43A2"><path opacity=".5" d="m37.204 80.204-4.439 1.124-1.19-3.407 4.745-1.202-.863-3.404-8.411 2.13.312.894 3.203 9.17 7.506-1.902-.863-3.403Zm2.241 8.84-.013.007-3.995-.078-.928-2.653-3.367.853 1.826 5.224 7.361.195.014-.008-.898-3.54Z"/><path opacity=".8" d="m21.216 62.751 1.722-.436.44 1.736 1.575-.4-.44-1.735 1.722-.436 1.333 5.256-1.722.436-.446-1.76-1.576.4.447 1.76-1.722.435-1.333-5.256Zm7.726-.102-1.516.384-.442-1.743 4.754-1.204.443 1.743-1.517.384.89 3.513-1.721.436-.891-3.513Zm3.551-2.754 1.796-.455 1.573 1.567.635-2.127 1.796-.455 1.333 5.257-1.715.434-.661-2.605-.71 2.169-.03.007-1.66-1.568.66 2.605-1.684.427-1.333-5.256Zm6.657-1.687 1.722-.436.893 3.519 2.421-.613.441 1.737-4.144 1.05-1.333-5.257ZM37.204 80.205l.863 3.404 4.135-1.048.73 4.513-3.485 1.974.898 3.54 6.393-3.677-.096-.588-1.483-9.16-.15-.935-.905.229-6.9 1.748Zm-1.747-6.89.863 3.404 8.11-2.054-.126-.782-.285-1.765-.151-.933-8.411 2.13Z"/></g><g filter="url('#filter2_f_120_260')"><circle cx="191.331" cy="13.331" r="6.5" transform="rotate(-110 191.331 13.331)" fill="url('#paint2_linear_120_260')"/></g><defs><linearGradient id="paint0_linear_120_260" x1="97.897" y1="103.663" x2="97.897" y2="115.061" gradientUnits="userSpaceOnUse"><stop stop-color="#AA43A2"/><stop offset="1" stop-color="#D48569"/></linearGradient><linearGradient id="paint1_linear_120_260" x1="26.437" y1="210.247" x2="26.437" y2="218.084" gradientUnits="userSpaceOnUse"><stop stop-color="#AA43A2"/><stop offset="1" stop-color="#D48569"/></linearGradient><linearGradient id="paint2_linear_120_260" x1="191.331" y1="9.919" x2="191.331" y2="21.944" gradientUnits="userSpaceOnUse"><stop stop-color="#AA43A2"/><stop offset="1" stop-color="#D48569"/></linearGradient><filter id="filter0_d_120_260" x="61.734" y="70.734" width="72.326" height="72.326" filterUnits="userSpaceOnUse" color-interpolation-filters="sRGB"><feFlood flood-opacity="0" result="BackgroundImageFix"/><feColorMatrix in="SourceAlpha" values="0 0 0 0 0 0 0 0 0 0 0 0 0 0 0 0 0 0 127 0" result="hardAlpha"/><feOffset/><feGaussianBlur stdDeviation="15"/><feComposite in2="hardAlpha" operator="out"/><feColorMatrix values="0 0 0 0 0.666667 0 0 0 0 0.262745 0 0 0 0 0.635294 0 0 0 0.45 0"/><feBlend in2="BackgroundImageFix" result="effect1_dropShadow_120_260"/><feBlend in="SourceGraphic" in2="effect1_dropShadow_120_260" result="shape"/></filter><filter id="filter1_f_120_260" x="16.2" y="202.234" width="20.474" height="20.474" filterUnits="userSpaceOnUse" color-interpolation-filters="sRGB"><feFlood flood-opacity="0" result="BackgroundImageFix"/><feBlend in="SourceGraphic" in2="BackgroundImageFix" result="shape"/><feGaussianBlur stdDeviation="3" result="effect1_foregroundBlur_120_260"/></filter><filter id="filter2_f_120_260" x="178.829" y=".829" width="25.004" height="25.004" filterUnits="userSpaceOnUse" color-interpolation-filters="sRGB"><feFlood flood-opacity="0" result="BackgroundImageFix"/><feBlend in="SourceGraphic" in2="BackgroundImageFix" result="shape"/><feGaussianBlur stdDeviation="3" result="effect1_foregroundBlur_120_260"/></filter><clipPath id="clip0_120_260"><path fill="#fff" transform="rotate(-14.215 252.456 -37.754) skewX(.016)" d="M0 0h27.837v39.767H0z"/></clipPath></defs></svg>