<svg width="680" height="562" fill="none" xmlns="http://www.w3.org/2000/svg"><g clip-path="url('#clip0_109_1557')" fill="#AA43A2"><path opacity=".5" d="m210.885 72.484-12.277 3.11-3.293-9.426 13.125-3.325-2.387-9.415-23.265 5.894.862 2.47 8.86 25.365 20.763-5.26-2.388-9.413Zm6.201 24.45-.038.021-11.051-.214-2.565-7.34-9.313 2.359 5.048 14.452 20.364.54.039-.023-2.484-9.796Z"/><path opacity=".8" d="M166.661 24.207 171.424 23l1.217 4.802 4.358-1.104-1.218-4.802 4.763-1.206 3.688 14.54-4.764 1.206-1.234-4.868-4.358 1.103 1.235 4.869-4.763 1.206-3.687-14.54Zm21.37-.282-4.193 1.062-1.223-4.822 13.153-3.331 1.223 4.822-4.196 1.062 2.465 9.718-4.764 1.207-2.464-9.718h-.001Zm9.824-7.62 4.967-1.258 4.351 4.335 1.756-5.882 4.969-1.259 3.687 14.54-4.744 1.202-1.828-7.207-1.966 6-.082.02-4.59-4.339 1.828 7.207-4.661 1.18-3.687-14.539Zm18.413-4.664 4.765-1.207 2.468 9.734 6.699-1.697 1.219 4.806-11.463 2.903-3.688-14.54ZM210.886 72.486l2.387 9.415 11.437-2.897 2.019 12.484-9.64 5.458 2.484 9.795 17.683-10.172-.264-1.626-4.103-25.34-.415-2.586-2.502.634-19.086 4.835Zm-4.833-19.057 2.388 9.415 22.433-5.683-.35-2.163-.788-4.88-.418-2.583-23.265 5.894Z"/></g><path opacity=".8" d="m194.717 531.06-4.003-6.927 9.946-5.747-4.381-7.579-17.405 10.057 12.381 21.423 17.406-10.058-3.998-6.916-9.946 5.747Zm23.835-23.012 6.953-4.018-4.38-7.58-17.408 10.059 4.381 7.579c3.697 1.021 5.566 1.452 10.912 2.928-1.969 1.137-6.907 4.001-6.908 4l3.997 6.915 17.407-10.058-3.997-6.916-10.957-2.909Zm24.672-14.256 6.953-4.018-4.381-7.579-17.408 10.058 4.381 7.58c3.696 1.021 5.566 1.451 10.912 2.927-1.968 1.137-6.908 4.001-6.908 4.001l3.997 6.915 17.408-10.059-3.997-6.916-10.957-2.909Z" fill="#AA43A2"/><g filter="url('#filter0_d_109_1557')"><circle cx="178.508" cy="323.507" r="16" transform="rotate(-110 178.508 323.507)" fill="url('#paint0_linear_109_1557')"/></g><g filter="url('#filter1_f_109_1557')"><circle cx="22.534" cy="493.79" r="11" transform="rotate(-110.165 22.534 493.79)" fill="url('#paint1_linear_109_1557')"/></g><circle cx="10" cy="117.908" r="10" fill="url('#paint2_linear_109_1557')"/><g clip-path="url('#clip1_109_1557')"><path d="M622.056 86.841 586.999 28.94 646.33.03l24.057 63.182-20.908 18.67-27.423 4.96Zm42.275-24.712L643.625 7.99l-24.292 11.848 28.1 57.144 16.898-14.854Zm-43.554-33.576-5.9 2.877 15.078 31.091-12.975 2.464 3.486 7.088 19.688-3.791-19.377-39.73Z" fill="#FEC830"/><path d="m620.466 72.07-3.485-7.087s8.314-1.508 12.975-2.464l-15.067-31.068 5.899-2.877 19.366 39.706-19.688 3.79Z" fill="#fff"/><path d="m619.322 19.814 24.293-11.848 20.705 54.138-17.083 14.944-27.915-57.234Zm39.508 34.204-7.866-20.18-11.157 7.072-5.053-10.36 12.564-6.184-2.943-7.325-18.949 9.357 12.819 25.637 10.517-7.563 2.635 5.814-10.068 8.718 3.545 6.974 13.956-11.96Z" fill="#FDD83C"/></g><defs><linearGradient id="paint0_linear_109_1557" x1="178.508" y1="315.107" x2="178.508" y2="344.707" gradientUnits="userSpaceOnUse"><stop stop-color="#AA43A2"/><stop offset="1" stop-color="#D48569"/></linearGradient><linearGradient id="paint1_linear_109_1557" x1="22.534" y1="488.015" x2="22.534" y2="508.365" gradientUnits="userSpaceOnUse"><stop stop-color="#AA43A2"/><stop offset="1" stop-color="#D48569"/></linearGradient><linearGradient id="paint2_linear_109_1557" x1="10" y1="112.658" x2="10" y2="131.158" gradientUnits="userSpaceOnUse"><stop stop-color="#AA43A2"/><stop offset="1" stop-color="#D48569"/></linearGradient><clipPath id="clip0_109_1557"><path fill="#fff" transform="rotate(-14.215 153.322 -612.111) skewX(.016)" d="M0 0h77v110H0z"/></clipPath><clipPath id="clip1_109_1557"><path fill="#fff" transform="rotate(-26 356.16 -1256.822)" d="M0 0h66v75H0z"/></clipPath><filter id="filter0_d_109_1557" x="132.503" y="277.503" width="92.008" height="92.009" filterUnits="userSpaceOnUse" color-interpolation-filters="sRGB"><feFlood flood-opacity="0" result="BackgroundImageFix"/><feColorMatrix in="SourceAlpha" values="0 0 0 0 0 0 0 0 0 0 0 0 0 0 0 0 0 0 127 0" result="hardAlpha"/><feOffset/><feGaussianBlur stdDeviation="15"/><feComposite in2="hardAlpha" operator="out"/><feColorMatrix values="0 0 0 0 0.666667 0 0 0 0 0.262745 0 0 0 0 0.635294 0 0 0 0.45 0"/><feBlend in2="BackgroundImageFix" result="effect1_dropShadow_109_1557"/><feBlend in="SourceGraphic" in2="effect1_dropShadow_109_1557" result="shape"/></filter><filter id="filter1_f_109_1557" x="5.531" y="476.787" width="34.006" height="34.006" filterUnits="userSpaceOnUse" color-interpolation-filters="sRGB"><feFlood flood-opacity="0" result="BackgroundImageFix"/><feBlend in="SourceGraphic" in2="BackgroundImageFix" result="shape"/><feGaussianBlur stdDeviation="3" result="effect1_foregroundBlur_109_1557"/></filter></defs></svg>