<svg width="1365" height="584" fill="none" xmlns="http://www.w3.org/2000/svg"><g clip-path="url('#clip0_104_5')" fill="#AA43A2"><path opacity=".5" d="m617.885 87.576-12.277 3.11-3.293-9.426 13.125-3.325-2.387-9.414-23.265 5.893.862 2.47 8.86 25.365 20.763-5.259-2.388-9.414Zm6.201 24.45-.038.021-11.051-.213-2.565-7.341-9.313 2.359 5.048 14.453 20.364.539.039-.023-2.484-9.795Z"/><path opacity=".8" d="m573.661 39.3 4.763-1.207 1.217 4.8 4.358-1.103-1.218-4.801 4.763-1.207 3.688 14.54-4.764 1.206-1.234-4.868-4.358 1.104 1.235 4.868-4.763 1.207-3.687-14.54Zm21.37-.283-4.193 1.062-1.223-4.821 13.153-3.332 1.223 4.822-4.196 1.063 2.465 9.717-4.764 1.207-2.464-9.718h-.001Zm9.824-7.62 4.967-1.258 4.351 4.335 1.756-5.882 4.969-1.259 3.687 14.54-4.744 1.202-1.828-7.207-1.966 6-.082.02-4.59-4.338 1.828 7.207-4.661 1.18-3.687-14.54Zm18.413-4.664 4.765-1.207 2.468 9.734 6.699-1.697 1.219 4.806-11.463 2.904-3.688-14.54ZM617.886 87.578l2.387 9.415 11.437-2.897 2.019 12.484-9.64 5.458 2.484 9.795 17.683-10.172-.264-1.626-4.103-25.34-.415-2.586-2.502.634-19.086 4.835Zm-4.833-19.057 2.388 9.415 22.433-5.682-.35-2.164-.788-4.88-.418-2.582-23.265 5.893Z"/></g><path opacity=".8" d="m601.717 546.152-4.003-6.926 9.946-5.748-4.381-7.579-17.405 10.057 12.381 21.423 17.406-10.057-3.998-6.917-9.946 5.747Zm23.835-23.012 6.953-4.018-4.38-7.579-17.408 10.058 4.381 7.579c3.697 1.021 5.566 1.452 10.912 2.928-1.969 1.138-6.907 4.001-6.908 4.001l3.997 6.915 17.407-10.059-3.997-6.916-10.957-2.909Zm24.672-14.256 6.953-4.018-4.381-7.579-17.408 10.059 4.381 7.579c3.696 1.021 5.566 1.451 10.912 2.927-1.968 1.138-6.908 4.002-6.908 4.001l3.997 6.915 17.408-10.059-3.997-6.916-10.957-2.909Z" fill="#AA43A2"/><g clip-path="url('#clip1_104_5')"><path d="M1234.06 145.909 1199 88.007l59.33-28.91 24.06 63.182-20.91 18.671-27.42 4.959Zm42.27-24.713-20.7-54.138-24.3 11.848 28.1 57.145 16.9-14.855Zm-43.55-33.576-5.9 2.878 15.08 31.091-12.98 2.463 3.49 7.088 19.68-3.791-19.37-39.729Z" fill="#FEC830"/><path d="m1232.47 131.138-3.49-7.088s8.32-1.507 12.98-2.464l-15.07-31.067 5.9-2.878 19.36 39.706-19.68 3.791Z" fill="#fff"/><path d="m1231.32 78.881 24.29-11.848 20.71 54.138-17.08 14.945-27.92-57.235Zm39.51 34.204-7.87-20.18-11.15 7.073-5.06-10.36 12.57-6.185-2.94-7.325-18.95 9.357 12.82 25.637 10.51-7.562 2.64 5.814-10.07 8.718 3.54 6.973 13.96-11.96Z" fill="#FDD83C"/></g><g filter="url('#filter0_d_104_5')"><circle cx="1290" cy="341" r="20" fill="url('#paint0_linear_104_5')"/></g><g filter="url('#filter1_d_104_5')"><circle cx="781" cy="50" r="20" fill="url('#paint1_linear_104_5')"/></g><g filter="url('#filter2_d_104_5')"><circle cx="50" cy="54" r="20" fill="url('#paint2_linear_104_5')"/></g><g filter="url('#filter3_d_104_5')"><circle cx="723.563" cy="341.493" r="16" transform="rotate(-110 723.563 341.493)" fill="url('#paint3_linear_104_5')"/></g><g filter="url('#filter4_f_104_5')"><circle cx="429.534" cy="508.882" r="11" transform="rotate(-110.165 429.534 508.882)" fill="url('#paint4_linear_104_5')"/></g><g filter="url('#filter5_d_104_5')"><circle cx="184.534" cy="411.882" r="11" transform="rotate(-110.165 184.534 411.882)" fill="url('#paint5_linear_104_5')"/></g><g filter="url('#filter6_f_104_5')"><circle cx="1140.98" cy="189.183" r="10" transform="rotate(-110 1140.98 189.183)" fill="url('#paint6_linear_104_5')"/></g><g filter="url('#filter7_f_104_5')"><circle cx="1351.88" cy="58.669" r="6.5" transform="rotate(-110 1351.88 58.669)" fill="url('#paint7_linear_104_5')"/></g><circle cx="1265" cy="574" r="10" fill="url('#paint8_linear_104_5')"/><circle cx="417" cy="133" r="10" fill="url('#paint9_linear_104_5')"/><defs><linearGradient id="paint0_linear_104_5" x1="1290" y1="330.5" x2="1290" y2="367.5" gradientUnits="userSpaceOnUse"><stop stop-color="#AA43A2"/><stop offset="1" stop-color="#D48569"/></linearGradient><linearGradient id="paint1_linear_104_5" x1="781" y1="39.5" x2="781" y2="76.5" gradientUnits="userSpaceOnUse"><stop stop-color="#AA43A2"/><stop offset="1" stop-color="#D48569"/></linearGradient><linearGradient id="paint2_linear_104_5" x1="50" y1="43.5" x2="50" y2="80.5" gradientUnits="userSpaceOnUse"><stop stop-color="#AA43A2"/><stop offset="1" stop-color="#D48569"/></linearGradient><linearGradient id="paint3_linear_104_5" x1="723.563" y1="333.093" x2="723.563" y2="362.693" gradientUnits="userSpaceOnUse"><stop stop-color="#AA43A2"/><stop offset="1" stop-color="#D48569"/></linearGradient><linearGradient id="paint4_linear_104_5" x1="429.534" y1="503.107" x2="429.534" y2="523.457" gradientUnits="userSpaceOnUse"><stop stop-color="#AA43A2"/><stop offset="1" stop-color="#D48569"/></linearGradient><linearGradient id="paint5_linear_104_5" x1="184.534" y1="406.107" x2="184.534" y2="426.457" gradientUnits="userSpaceOnUse"><stop stop-color="#AA43A2"/><stop offset="1" stop-color="#D48569"/></linearGradient><linearGradient id="paint6_linear_104_5" x1="1140.98" y1="183.933" x2="1140.98" y2="202.433" gradientUnits="userSpaceOnUse"><stop stop-color="#AA43A2"/><stop offset="1" stop-color="#D48569"/></linearGradient><linearGradient id="paint7_linear_104_5" x1="1351.88" y1="55.256" x2="1351.88" y2="67.281" gradientUnits="userSpaceOnUse"><stop stop-color="#AA43A2"/><stop offset="1" stop-color="#D48569"/></linearGradient><linearGradient id="paint8_linear_104_5" x1="1265" y1="568.75" x2="1265" y2="587.25" gradientUnits="userSpaceOnUse"><stop stop-color="#AA43A2"/><stop offset="1" stop-color="#D48569"/></linearGradient><linearGradient id="paint9_linear_104_5" x1="417" y1="127.75" x2="417" y2="146.25" gradientUnits="userSpaceOnUse"><stop stop-color="#AA43A2"/><stop offset="1" stop-color="#D48569"/></linearGradient><filter id="filter0_d_104_5" x="1240" y="291" width="100" height="100" filterUnits="userSpaceOnUse" color-interpolation-filters="sRGB"><feFlood flood-opacity="0" result="BackgroundImageFix"/><feColorMatrix in="SourceAlpha" values="0 0 0 0 0 0 0 0 0 0 0 0 0 0 0 0 0 0 127 0" result="hardAlpha"/><feOffset/><feGaussianBlur stdDeviation="15"/><feComposite in2="hardAlpha" operator="out"/><feColorMatrix values="0 0 0 0 0.666667 0 0 0 0 0.262745 0 0 0 0 0.635294 0 0 0 0.45 0"/><feBlend in2="BackgroundImageFix" result="effect1_dropShadow_104_5"/><feBlend in="SourceGraphic" in2="effect1_dropShadow_104_5" result="shape"/></filter><filter id="filter1_d_104_5" x="731" y="0" width="100" height="100" filterUnits="userSpaceOnUse" color-interpolation-filters="sRGB"><feFlood flood-opacity="0" result="BackgroundImageFix"/><feColorMatrix in="SourceAlpha" values="0 0 0 0 0 0 0 0 0 0 0 0 0 0 0 0 0 0 127 0" result="hardAlpha"/><feOffset/><feGaussianBlur stdDeviation="15"/><feComposite in2="hardAlpha" operator="out"/><feColorMatrix values="0 0 0 0 0.666667 0 0 0 0 0.262745 0 0 0 0 0.635294 0 0 0 0.45 0"/><feBlend in2="BackgroundImageFix" result="effect1_dropShadow_104_5"/><feBlend in="SourceGraphic" in2="effect1_dropShadow_104_5" result="shape"/></filter><filter id="filter2_d_104_5" x="0" y="4" width="100" height="100" filterUnits="userSpaceOnUse" color-interpolation-filters="sRGB"><feFlood flood-opacity="0" result="BackgroundImageFix"/><feColorMatrix in="SourceAlpha" values="0 0 0 0 0 0 0 0 0 0 0 0 0 0 0 0 0 0 127 0" result="hardAlpha"/><feOffset/><feGaussianBlur stdDeviation="15"/><feComposite in2="hardAlpha" operator="out"/><feColorMatrix values="0 0 0 0 0.666667 0 0 0 0 0.262745 0 0 0 0 0.635294 0 0 0 0.45 0"/><feBlend in2="BackgroundImageFix" result="effect1_dropShadow_104_5"/><feBlend in="SourceGraphic" in2="effect1_dropShadow_104_5" result="shape"/></filter><filter id="filter3_d_104_5" x="677.559" y="295.488" width="92.008" height="92.009" filterUnits="userSpaceOnUse" color-interpolation-filters="sRGB"><feFlood flood-opacity="0" result="BackgroundImageFix"/><feColorMatrix in="SourceAlpha" values="0 0 0 0 0 0 0 0 0 0 0 0 0 0 0 0 0 0 127 0" result="hardAlpha"/><feOffset/><feGaussianBlur stdDeviation="15"/><feComposite in2="hardAlpha" operator="out"/><feColorMatrix values="0 0 0 0 0.666667 0 0 0 0 0.262745 0 0 0 0 0.635294 0 0 0 0.45 0"/><feBlend in2="BackgroundImageFix" result="effect1_dropShadow_104_5"/><feBlend in="SourceGraphic" in2="effect1_dropShadow_104_5" result="shape"/></filter><filter id="filter4_f_104_5" x="412.531" y="491.879" width="34.006" height="34.006" filterUnits="userSpaceOnUse" color-interpolation-filters="sRGB"><feFlood flood-opacity="0" result="BackgroundImageFix"/><feBlend in="SourceGraphic" in2="BackgroundImageFix" result="shape"/><feGaussianBlur stdDeviation="3" result="effect1_foregroundBlur_104_5"/></filter><filter id="filter5_d_104_5" x="143.531" y="370.879" width="82.006" height="82.006" filterUnits="userSpaceOnUse" color-interpolation-filters="sRGB"><feFlood flood-opacity="0" result="BackgroundImageFix"/><feColorMatrix in="SourceAlpha" values="0 0 0 0 0 0 0 0 0 0 0 0 0 0 0 0 0 0 127 0" result="hardAlpha"/><feOffset/><feGaussianBlur stdDeviation="15"/><feComposite in2="hardAlpha" operator="out"/><feColorMatrix values="0 0 0 0 0.666667 0 0 0 0 0.262745 0 0 0 0 0.635294 0 0 0 0.45 0"/><feBlend in2="BackgroundImageFix" result="effect1_dropShadow_104_5"/><feBlend in="SourceGraphic" in2="effect1_dropShadow_104_5" result="shape"/></filter><filter id="filter6_f_104_5" x="1124.97" y="173.18" width="32.005" height="32.005" filterUnits="userSpaceOnUse" color-interpolation-filters="sRGB"><feFlood flood-opacity="0" result="BackgroundImageFix"/><feBlend in="SourceGraphic" in2="BackgroundImageFix" result="shape"/><feGaussianBlur stdDeviation="3" result="effect1_foregroundBlur_104_5"/></filter><filter id="filter7_f_104_5" x="1339.38" y="46.167" width="25.003" height="25.004" filterUnits="userSpaceOnUse" color-interpolation-filters="sRGB"><feFlood flood-opacity="0" result="BackgroundImageFix"/><feBlend in="SourceGraphic" in2="BackgroundImageFix" result="shape"/><feGaussianBlur stdDeviation="3" result="effect1_foregroundBlur_104_5"/></filter><clipPath id="clip0_104_5"><path fill="#fff" transform="matrix(.96938 -.24555 .24582 .96932 562 34)" d="M0 0h77v110H0z"/></clipPath><clipPath id="clip1_104_5"><path fill="#fff" transform="rotate(-26 790.085 -2552.72)" d="M0 0h66v75H0z"/></clipPath></defs></svg>