<svg width="1600" height="1025" fill="none" xmlns="http://www.w3.org/2000/svg"><path d="M1728.27 330.278c-316.43 50.132-523.75-112.478-486.98-198.874m0 0c19.14-38.932 54.58-50.12 82.19-49.227 27.61.893 41.09 21.849 28.62 33.735-26.8 25.543-78.34 21.019-110.81 15.492Zm0 0c-53.72-9.14-175.76-36.73-202.2-111.822" stroke="#AA43A2" stroke-width="1.5" stroke-linecap="round" stroke-linejoin="round" stroke-dasharray="2 5"/><circle cx="1472" cy="324" r="10" fill="url('#paint0_linear_104_9')"/><g filter="url('#filter0_d_104_9')"><circle cx="121" cy="276" r="20" fill="url('#paint1_linear_104_9')"/></g><path d="M312.694 973c-63.021-148.287-141.34-134.998-174.209-111.519-32.87 23.479-4.692 93.545 39.376 67.894 44.068-25.651-50.965-214.863-283.657-163.916" stroke="#AA43A2" stroke-width="1.5" stroke-linecap="round" stroke-linejoin="round" stroke-dasharray="2 5"/><g filter="url('#filter1_d_104_9')"><circle cx="313" cy="971" r="10" fill="url('#paint2_linear_104_9')"/></g><defs><linearGradient id="paint0_linear_104_9" x1="1472" y1="318.75" x2="1472" y2="337.25" gradientUnits="userSpaceOnUse"><stop stop-color="#AA43A2"/><stop offset="1" stop-color="#D48569"/></linearGradient><linearGradient id="paint1_linear_104_9" x1="121" y1="265.5" x2="121" y2="302.5" gradientUnits="userSpaceOnUse"><stop stop-color="#AA43A2"/><stop offset="1" stop-color="#D48569"/></linearGradient><linearGradient id="paint2_linear_104_9" x1="313" y1="965.75" x2="313" y2="984.25" gradientUnits="userSpaceOnUse"><stop stop-color="#AA43A2"/><stop offset="1" stop-color="#D48569"/></linearGradient><filter id="filter0_d_104_9" x="71" y="226" width="100" height="100" filterUnits="userSpaceOnUse" color-interpolation-filters="sRGB"><feFlood flood-opacity="0" result="BackgroundImageFix"/><feColorMatrix in="SourceAlpha" values="0 0 0 0 0 0 0 0 0 0 0 0 0 0 0 0 0 0 127 0" result="hardAlpha"/><feOffset/><feGaussianBlur stdDeviation="15"/><feComposite in2="hardAlpha" operator="out"/><feColorMatrix values="0 0 0 0 0.666667 0 0 0 0 0.262745 0 0 0 0 0.635294 0 0 0 0.3 0"/><feBlend in2="BackgroundImageFix" result="effect1_dropShadow_104_9"/><feBlend in="SourceGraphic" in2="effect1_dropShadow_104_9" result="shape"/></filter><filter id="filter1_d_104_9" x="273" y="931" width="80" height="80" filterUnits="userSpaceOnUse" color-interpolation-filters="sRGB"><feFlood flood-opacity="0" result="BackgroundImageFix"/><feColorMatrix in="SourceAlpha" values="0 0 0 0 0 0 0 0 0 0 0 0 0 0 0 0 0 0 127 0" result="hardAlpha"/><feOffset/><feGaussianBlur stdDeviation="15"/><feComposite in2="hardAlpha" operator="out"/><feColorMatrix values="0 0 0 0 0.666667 0 0 0 0 0.262745 0 0 0 0 0.635294 0 0 0 0.3 0"/><feBlend in2="BackgroundImageFix" result="effect1_dropShadow_104_9"/><feBlend in="SourceGraphic" in2="effect1_dropShadow_104_9" result="shape"/></filter></defs></svg>