<svg aria-hidden="true" style="width:0;height:0;position:absolute;overflow:hidden" xmlns="http://www.w3.org/2000/svg"><defs><symbol id="icon-decor-hero" viewBox="0 0 75 32"><path fill="#aa43a2" style="fill:var(--color1,#aa43a2)" opacity=".5" d="m33.799 4.84-.672.17-.18-.516.718-.182-.131-.515-1.273.322.047.135.485 1.388 1.136-.288-.131-.515zm.339 1.338-.002.001-.605-.012-.14-.402-.509.129.276.791 1.114.029.002-.001-.136-.536z"/><path fill="#aa43a2" style="fill:var(--color1,#aa43a2)" opacity=".8" d="m31.38 2.199.261-.066.067.263.238-.06-.067-.263.261-.066.202.795-.261.066-.068-.266-.238.06.068.266-.261.066-.202-.795zm1.169-.015-.229.058-.067-.264.719-.182.067.264-.229.058.135.532-.261.066-.135-.532zm.537-.417.272-.069.238.237.096-.322.272-.069.202.795-.26.066-.1-.394-.108.328-.005.001-.251-.237.1.394-.255.065-.202-.795zm1.007-.255.261-.066.135.532.366-.093.067.263-.627.159-.202-.795zM33.799 4.84l.131.515.626-.158.11.683-.527.299.136.536.967-.556-.014-.089-.224-1.386-.023-.141-1.181.299zm-.265-1.042.131.515 1.227-.311-.019-.118-.043-.267-.023-.141-1.273.322zM32.914 29.925l-.219-.379.544-.314-.24-.415-.952.55.677 1.172.952-.55-.219-.378-.544.314zm1.304-1.259.38-.22-.24-.415-.952.55.24.415c.202.056.304.079.597.16l-.378.219.219.378.952-.55-.219-.378-.599-.159zm1.35-.78.38-.22-.24-.415-.952.55.24.415c.202.056.304.079.597.16l-.378.219.219.378.952-.55-.219-.378-.599-.159z"/><path fill="#fec830" style="fill:var(--color2,#fec830)" d="m67.504 8.031-1.918-3.167 3.245-1.581 1.316 3.456-1.144 1.021-1.5.271zm2.312-1.352-1.132-2.961-1.329.648 1.537 3.126.924-.813zm-2.382-1.836L67.111 5l.825 1.701-.71.135.191.388 1.076-.207-1.06-2.173z"/><path fill="#fff" style="fill:var(--color3,#fff)" d="m67.417 7.223-.191-.388s.455-.082.71-.135l-.824-1.699.323-.157 1.059 2.172-1.076.207z"/><path fill="#fdd83c" style="fill:var(--color4,#fdd83c)" d="m67.354 4.364 1.329-.648 1.133 2.961-.934.817-1.527-3.131zm2.162 1.872-.43-1.104-.61.387-.277-.567.688-.338-.161-.401-1.037.512.701 1.402.575-.414.144.318-.551.477.194.381.764-.654z"/><path style="fill:var(--color5,#000)" d="M71.658 18.703a1.094 1.094 0 1 1-2.189 0 1.094 1.094 0 0 1 2.189 0zM43.815 2.785a1.094 1.094 0 1 1-2.189 0 1.094 1.094 0 0 1 2.189 0zM3.829 3.003a1.094 1.094 0 1 1-2.189 0 1.094 1.094 0 0 1 2.189 0zM39.28 17.907a.876.876 0 1 1 .598 1.647.876.876 0 0 1-.598-1.647zM23.288 27.321a.6.6 0 1 1 .416 1.127.6.6 0 0 1-.416-1.127zM9.887 22.015a.6.6 0 1 1 .416 1.127.6.6 0 0 1-.416-1.127zM62.225 9.884a.547.547 0 1 1 .374 1.028.547.547 0 0 1-.374-1.028zM73.827 2.925a.356.356 0 1 1 .244.669.356.356 0 0 1-.244-.669zM69.744 31.448a.547.547 0 1 1-1.094 0 .547.547 0 0 1 1.094 0zM23.357 7.325a.547.547 0 1 1-1.094 0 .547.547 0 0 1 1.094 0z"/></symbol><symbol id="icon-hero-elips" viewBox="0 0 25 32"><path fill="#fff" style="fill:var(--color3,#fff)" d="M24.913 12.981C24.913 22.437 27.57 32 20.917 32 22.015 12.862 7.235 27.198.6 15.876c-3.509-5.988 9.415-21.133 11.948-14.01s12.365 1.659 12.365 11.115z"/></symbol><symbol id="icon-add-people" viewBox="0 0 32 32"><path fill="#fff" style="fill:var(--color3,#fff);stroke:var(--color1,#aa43a2)" stroke="#aa43a2" stroke-width=".762" d="M31.619 16c0 8.626-6.993 15.619-15.619 15.619S.381 24.626.381 16 7.374.381 16 .381 31.619 7.374 31.619 16z"/><path fill="#aa43a2" style="fill:var(--color1,#aa43a2)" d="M22.709 17.238a3.122 3.122 0 0 0-1.934-.91 3.076 3.076 0 0 0 1.026-2.295 3.09 3.09 0 0 0-6.171-.227 4.091 4.091 0 0 1 2.468 3.751c0 .613-.139 1.212-.399 1.755.373.195.718.448 1.018.75A4.148 4.148 0 0 1 19.915 23l-.001.022-.001.019-.027.517h3.701l.031-4.093a3.125 3.125 0 0 0-.91-2.228z"/><path fill="#aa43a2" style="fill:var(--color1,#aa43a2)" d="M16.077 19.853a3.078 3.078 0 0 0 1.026-2.295 3.09 3.09 0 0 0-6.18 0c0 .911.396 1.727 1.024 2.293a3.126 3.126 0 0 0-2.887 3.093l-.031.615h9.862l.031-.569a3.126 3.126 0 0 0-2.844-3.138zM10.374 12.157v1.148a.862.862 0 0 0 1.724 0v-1.148h1.147a.862.862 0 0 0 0-1.724h-1.147V9.302a.861.861 0 0 0-1.724 0v1.131H9.243a.862.862 0 0 0 0 1.724h1.131z"/></symbol><symbol id="icon-brackets" viewBox="0 0 32 32"><path fill="#aa43a2" style="fill:var(--color1,#aa43a2);stroke:var(--color1,#aa43a2)" stroke="#aa43a2" stroke-width="1.067" d="M31.467 16c0 8.542-6.925 15.467-15.467 15.467S.533 24.542.533 16C.533 7.458 7.458.533 16 .533S31.467 7.458 31.467 16z"/><path fill="#fff" style="fill:var(--color3,#fff)" d="m11.332 19.891-6.195-2.714v-1.766l6.195-2.714v1.805l-4.326 1.779 4.326 1.779v1.83zM12.096 22.438l5.67-11.853h1.651l-5.67 11.853h-1.651zM20.368 19.891v-1.805l4.326-1.779-4.326-1.779v-1.83l6.195 2.714v1.766l-6.195 2.714z"/></symbol><symbol id="icon-children" viewBox="0 0 32 32"><path fill="#aa43a2" style="fill:var(--color1,#aa43a2);stroke:var(--color1,#aa43a2)" stroke="#aa43a2" stroke-width="1.067" d="M31.467 16c0 8.542-6.925 15.467-15.467 15.467S.533 24.542.533 16C.533 7.458 7.458.533 16 .533S31.467 7.458 31.467 16z"/><path fill="#fff" style="fill:var(--color3,#fff)" d="M20.702 17.831c.565 0 1.025-.46 1.025-1.025a.312.312 0 1 0-.625 0 .4.4 0 0 1-.8 0 .312.312 0 1 0-.625 0c0 .565.46 1.025 1.025 1.025zM22.341 16.078c.173 0 .312-.14.312-.313v-.326a.313.313 0 0 0-.038-.623h-.274a.313.313 0 0 0-.313.313v.637c0 .173.14.313.313.313zM18.751 15.439v.326a.313.313 0 1 0 .625 0v-.637a.312.312 0 0 0-.312-.312h-.274a.312.312 0 0 0-.038.622z"/><path fill="#fff" style="fill:var(--color3,#fff)" d="M25.373 15.822a1.446 1.446 0 0 0-.225-1.578.31.31 0 0 0 .057-.18c0-.923.046-1.47-.232-2.264a.312.312 0 1 0-.59.206c.227.649.197 1.099.197 1.745h-1.925c-.904 0-1.64-.736-1.64-1.64a.312.312 0 1 0-.624 0c0 .904-.736 1.64-1.64 1.64h-1.925v-.582a3.526 3.526 0 0 1 3.522-3.522c.024 0 .043.019.043.043a.312.312 0 1 0 .624 0c0-.024.019-.043.043-.043 1.018 0 1.986.441 2.656 1.209a.312.312 0 1 0 .471-.411 4.148 4.148 0 0 0-3.127-1.423.661.661 0 0 0-.355.103.664.664 0 0 0-.355-.103 4.151 4.151 0 0 0-4.147 4.147v.895a.31.31 0 0 0 .057.18 1.466 1.466 0 0 0-.253.403 1.58 1.58 0 0 0-.617-1.13v-1.191a4.256 4.256 0 0 0-4.251-4.251c-.582 0-.349-.01-1.154.053a3.554 3.554 0 0 0-2.706 1.605l-.941-.301a.312.312 0 0 0-.407.283c-.004.094-.099 2.187.283 3.645-.52.261-.878.799-.878 1.419 0 .805.602 1.471 1.38 1.573a4.073 4.073 0 0 0 1.871 2.563h-.658c-1.08 0-1.959.879-1.959 1.959v2.738c0 .173.14.312.312.312h.519a.312.312 0 1 0 0-.624h-.207v-2.426c0-.736.599-1.334 1.334-1.334h.909a1.87 1.87 0 0 0 1.962 1.551 1.87 1.87 0 0 0 1.72-1.551h.909c.736 0 1.335.599 1.335 1.334V23.3H8.257a.313.313 0 1 0 0 .624h6.817c.173 0 .313-.14.313-.312v-2.738c0-.26-.051-.509-.144-.736h.502c.314 0 .614-.063.888-.176a1.896 1.896 0 0 0-.305 1.034v2.617c0 .173.14.312.313.312h8.144c.173 0 .313-.14.313-.312v-2.617c0-.376-.11-.727-.298-1.022.266.106.556.165.86.165h.695c.173 0 .312-.14.312-.312v-1.914c0-.89-.516-1.7-1.294-2.09zm-6.623-1.445c.831 0 1.558-.449 1.952-1.118a2.267 2.267 0 0 0 1.952 1.118h1.404a.828.828 0 1 1-.033 1.653.311.311 0 0 0-.321.261 3.04 3.04 0 0 1-3.002 2.538 3.038 3.038 0 0 1-2.642-1.527.264.264 0 0 0-.018-.038 3.003 3.003 0 0 1-.288-.72l-.004-.015a2.52 2.52 0 0 1-.05-.239.313.313 0 0 0-.321-.261.828.828 0 1 1-.034-1.653l.034.001c.013.001.026 0 .039-.001h1.331zm1.957 6.392a1.08 1.08 0 0 1-1.078-1.078v-.396a3.693 3.693 0 0 0 2.156-.003v.399a1.08 1.08 0 0 1-1.023 1.077l-.055.001zm-2.47-1.682c-.214 0-.42.036-.612.102a2.33 2.33 0 0 0 .404-.892 3.684 3.684 0 0 0 .975.741v.05h-.767zm4.174-.055c.354-.186.677-.429.965-.735.07.324.208.623.397.882-.357-.115-.543-.092-1.363-.092v-.055zM6.542 10.155l.78.249a.314.314 0 0 0 .369-.146 2.928 2.928 0 0 1 2.34-1.506c.786-.061.547-.051 1.105-.051a3.63 3.63 0 0 1 3.626 3.626v.903c-.273-.059-.187-.035-4.473-.035a2.09 2.09 0 0 1-2.051-1.686.313.313 0 0 0-.535-.153 4.067 4.067 0 0 0-.937 1.645c-.215-.972-.232-2.212-.225-2.844zM7.28 16a.312.312 0 0 0-.308-.261h-.013a.963.963 0 0 1-1.001-.96c0-.521.415-.943.927-.961h.004a.817.817 0 0 1 .07 0h.005a.312.312 0 0 0 .317-.261c.071-.422.219-.823.436-1.187.031-.052.064-.103.097-.154a2.721 2.721 0 0 0 2.476 1.601h4.179c.152.007.31.053.446.134l.007.004a.962.962 0 0 1-.498 1.783l-.039-.001a.313.313 0 0 0-.321.261 3.43 3.43 0 0 1-3.392 2.868 3.429 3.429 0 0 1-3.392-2.867zm3.335 4.469a1.245 1.245 0 0 1-1.173-1.113l-.001-.014-.003-.041a4.114 4.114 0 0 0 2.48-.003 1.244 1.244 0 0 1-1.303 1.171zm2.813-1.554h-.669a4.066 4.066 0 0 0 1.871-2.563 1.59 1.59 0 0 0 1.271-.996c.017.165.062.322.13.466a2.352 2.352 0 0 0-1.294 2.09v1.507a1.951 1.951 0 0 0-1.31-.504zm1.935.599v-1.601c0-.695.43-1.324 1.063-1.584.208.169.458.276.707.313.072.302.186.596.323.855v.306c0 .944-.768 1.711-1.711 1.711h-.383zm9.109 3.786h-7.519v-2.304c0-.708.576-1.284 1.284-1.284h.767a1.707 1.707 0 0 0 1.703 1.682c.927 0 1.691-.747 1.703-1.682h.777c.708 0 1.284.576 1.284 1.284V23.3zm1.57-3.786h-.383a1.713 1.713 0 0 1-1.711-1.711v-.306c.139-.263.252-.558.323-.855a1.44 1.44 0 0 0 .677-.29l.03-.023c.634.26 1.063.889 1.063 1.584v1.601z"/><path fill="#fff" style="fill:var(--color3,#fff)" d="M10.672 17.684a1.11 1.11 0 0 0 1.109-1.109.313.313 0 1 0-.625 0 .484.484 0 0 1-.968 0 .313.313 0 1 0-.625 0 1.11 1.11 0 0 0 1.109 1.109zM8.84 14.399a.313.313 0 0 0-.313.312v.691a.312.312 0 1 0 .625 0v-.691a.312.312 0 0 0-.312-.312zM12.503 15.714c.173 0 .313-.14.313-.312v-.691a.312.312 0 1 0-.625 0v.691c0 .173.14.312.312.312z"/></symbol><symbol id="icon-fire" viewBox="0 0 32 32"><path fill="#fff" style="fill:var(--color3,#fff);stroke:var(--color1,#aa43a2)" stroke="#aa43a2" stroke-width=".762" d="M31.619 16c0 8.626-6.993 15.619-15.619 15.619S.381 24.626.381 16 7.374.381 16 .381 31.619 7.374 31.619 16z"/><path fill="#aa43a2" style="fill:var(--color1,#aa43a2)" d="M14.004 4.386c-.133.133-.133.037.041 1.142.138.885.151 2.769.023 3.228-.161.569-.376.83-.684.83-.202 0-.541-.133-.89-.348-.509-.312-.56-.293-1.037.339-.835 1.105-1.413 2.329-1.674 3.54-.055.275-.083.587-.083 1.078 0 .738.069 1.146.28 1.715.06.16.101.303.087.316s-.138.032-.275.046c-.206.018-.298 0-.505-.101-.294-.147-.638-.514-.849-.903-.151-.284-.243-.362-.427-.362-.22 0-.303.128-.45.688-.44 1.719-.674 3.544-.624 4.814.151 3.659 2.248 6.162 5.872 7.015 1.514.358 3.569.413 5.161.138 2.463-.422 4.317-1.541 5.431-3.283.394-.614.784-1.596.95-2.384.33-1.614.202-4.035-.344-6.295-.211-.894-.56-1.926-.688-2.054-.22-.22-.615-.05-.615.257 0 .22-.17.614-.353.83-.147.17-.527.459-.605.459-.018 0-.018-.394-.014-.88.018-.963-.028-1.476-.202-2.274-.702-3.182-2.917-5.686-6.486-7.355-.367-.17-.725-.312-.794-.312a.384.384 0 0 0-.248.119zm.588 12.907c.307.165.45.312.628.656.101.197.119.293.119.624.005.358-.009.413-.151.679-.174.321-.321.459-.665.642-.197.101-.294.119-.624.119s-.427-.018-.624-.119c-.344-.183-.491-.321-.665-.642-.142-.266-.156-.321-.151-.679 0-.426.083-.656.335-.967.138-.165.518-.399.757-.459.289-.078.743-.009 1.041.147zm4.33-.073c.078.073.115.16.115.261 0 .138-.252.399-3.041 3.187s-3.05 3.04-3.188 3.04a.383.383 0 0 1-.376-.376c0-.138.252-.399 3.041-3.187s3.05-3.04 3.188-3.04c.101 0 .188.037.261.115zm-.661 3.741c.307.165.45.312.628.656.101.197.119.293.119.624.005.358-.009.413-.151.679-.174.321-.321.459-.665.642-.197.101-.294.119-.624.119s-.427-.018-.624-.119c-.344-.183-.491-.321-.665-.642-.142-.266-.156-.321-.151-.679 0-.426.083-.656.335-.967.138-.165.518-.399.757-.459.289-.078.743-.009 1.041.147z"/><path fill="#aa43a2" style="fill:var(--color1,#aa43a2)" d="M13.601 17.903a.726.726 0 0 0-.211 1.178.691.691 0 0 0 1.018 0c.569-.569-.069-1.499-.807-1.178zM17.27 21.571a.726.726 0 0 0-.211 1.178.691.691 0 0 0 1.018 0c.569-.569-.069-1.499-.807-1.178z"/></symbol><symbol id="icon-free" viewBox="0 0 32 32"><path fill="#fff" style="fill:var(--color3,#fff);stroke:var(--color1,#aa43a2)" stroke="#aa43a2" stroke-width=".762" d="M31.619 16c0 8.626-6.993 15.619-15.619 15.619S.381 24.626.381 16 7.374.381 16 .381 31.619 7.374 31.619 16z"/><path fill="#aa43a2" style="fill:var(--color1,#aa43a2)" d="M15.57 14.442a.43.43 0 0 0 .304-.735l-.304-.304-.609.609.304.304a.425.425 0 0 0 .304.126z"/><path fill="#aa43a2" style="fill:var(--color1,#aa43a2)" d="M27.366 15.219a5.903 5.903 0 0 0-.596-1.947l-.01-.016c-.679-1.316-1.781-2.366-2.861-3.394-.299-.285-.601-.572-.894-.866a45.932 45.932 0 0 1-.87-.899c-1.088-1.142-2.208-2.298-3.631-2.962-.019-.007-.032-.023-.052-.027l-.024-.005a5.821 5.821 0 0 0-1.689-.472 4.69 4.69 0 0 0-.738-.06C9.699 4.571 4.572 9.698 4.572 16s5.127 11.429 11.429 11.429c6.302 0 11.429-5.127 11.429-11.429 0-.29-.024-.548-.063-.781zM16 26.476c-5.776 0-10.476-4.7-10.476-10.476 0-5.647 4.494-10.25 10.091-10.455a.46.46 0 0 1 .28-.032l.062.013.125.028 1.242.278c.027.02.04.052.064.074.015.012.036.014.05.028.059.06.102.133.148.203.014.023.033.04.047.065.201.35.284.831.398 1.535.207 1.273.464 2.858 1.919 4.313s3.04 1.712 4.313 1.919c.419.069.77.129 1.066.212.146.041.275.09.392.148l.044.024c.103.054.194.121.274.196l.035.035c.078.081.145.178.199.289l.018.035c.12.264.186.607.186 1.09-.001 5.778-4.701 10.478-10.477 10.478z"/><path fill="#aa43a2" style="fill:var(--color1,#aa43a2)" d="M24.444 15.156c-1.346-.219-3.191-.518-4.878-2.206S17.58 9.417 17.36 8.07c-.091-.564-.161-.997-.268-1.205l-.961-.215c-5.24.069-9.482 4.349-9.482 9.607 0 5.301 4.311 9.614 9.61 9.614s9.61-4.313 9.61-9.614c0-.18-.019-.357-.032-.534-.077-.347-.357-.397-1.394-.565zm-12.442-2.639-.34-.34-1.02 1.02a.482.482 0 0 1-.68 0 .482.482 0 0 1 0-.68l2.718-2.719a.482.482 0 0 1 .68 0l1.359 1.359a.48.48 0 1 1-.679.68l-1.02-1.02-.679.68.34.34a.482.482 0 0 1-.34.82.476.476 0 0 1-.337-.14zm2.379 4.899a.481.481 0 0 1-.481-.481v-1.558l-.539.539c-.187.188-.492.188-.679 0s-.187-.492 0-.68l1.349-1.35.019-.019 1.35-1.351a.48.48 0 0 1 .679 0l.679.68a1.445 1.445 0 0 1 0 2.04 1.432 1.432 0 0 1-1.02.422c-.323 0-.629-.105-.879-.299v1.576h.001a.481.481 0 0 1-.48.481zm3.059 1.899a.482.482 0 0 1-.34.82.482.482 0 0 1-.34-.14l-1.359-1.36a.482.482 0 0 1 0-.68l2.718-2.719a.481.481 0 0 1 .679 0l1.359 1.359a.48.48 0 1 1-.679.68l-1.019-1.019-.679.68.34.34a.482.482 0 0 1-.34.82.482.482 0 0 1-.34-.14l-.34-.34-.679.68 1.021 1.02zm5.436.68a.481.481 0 0 1-.679 0l-1.02-1.02-.679.68.34.34a.482.482 0 0 1-.34.82.482.482 0 0 1-.34-.14l-.34-.34-.679.68 1.02 1.02a.482.482 0 0 1-.34.82.482.482 0 0 1-.34-.14l-1.359-1.359a.482.482 0 0 1 0-.68l2.718-2.72a.48.48 0 0 1 .68 0l1.359 1.36a.481.481 0 0 1 .001.68z"/></symbol><symbol id="icon-pencil" viewBox="0 0 32 32"><path fill="#aa43a2" style="fill:var(--color1,#aa43a2);stroke:var(--color1,#aa43a2)" stroke="#aa43a2" stroke-width="1.067" d="M31.467 16c0 8.542-6.925 15.467-15.467 15.467S.533 24.542.533 16C.533 7.458 7.458.533 16 .533S31.467 7.458 31.467 16z"/><path fill="#fff" style="fill:var(--color3,#fff)" d="M6.498 6.486c-.124.124-.131.296-.011.416.082.082.116.086.964.112 3.026.086 5.509.383 6.994.829.915.274 1.575.682 1.669 1.035.116.431-.364 1.009-1.462 1.759-1.523 1.039-2.1 1.699-2.1 2.404 0 .788.802 1.339 2.67 1.822l.551.146-3.952 3.945-.713.041c-1.331.079-2.269.281-2.996.649-.81.409-1.365 1.069-1.586 1.883-.082.307-.079.9.004 1.241.143.566.581 1.294 1.046 1.736.244.229.383.255.532.101.169-.165.131-.281-.206-.637-.304-.326-.585-.754-.709-1.088a2.076 2.076 0 0 1 .724-2.411c.622-.461 1.695-.776 2.891-.855l.375-.023-.896.896-.893.9-.446 1.928c-.244 1.061-.446 1.965-.446 2.014 0 .105.158.27.259.27.131 0 3.832-.863 3.938-.919.052-.026 1.178-1.132 2.498-2.456l2.4-2.404.769.026c.817.026 1.808-.023 2.456-.12 1.065-.157 1.83-.491 2.291-1.001.765-.84.701-1.766-.169-2.404a5.744 5.744 0 0 0-1.042-.532l-.199-.071 1.796-1.8c1.039-1.043 1.834-1.871 1.89-1.969.195-.341.259-.784.161-1.144-.098-.371-.203-.51-.975-1.283-.664-.667-.784-.772-1.016-.881-.244-.116-.293-.124-.637-.124-.353 0-.394.007-.637.127-.248.116-.446.308-3.131 2.989l-2.869 2.865-.469-.109c-1.481-.341-2.34-.709-2.584-1.106-.281-.454.236-1.103 1.665-2.085.881-.604 1.264-.941 1.549-1.361.45-.653.371-1.283-.225-1.804-1.039-.911-4.166-1.492-8.715-1.62l-.908-.026-.098.098zM23.294 9.19c.139.064.371.274.885.795.784.795.847.896.81 1.267-.03.289-.101.405-.529.84l-.375.386-2.46-2.46.367-.368c.454-.461.596-.54.945-.548a.81.81 0 0 1 .356.086zm-.15 4.222-.506.506-2.456-2.456 1.012-1.012 2.456 2.456-.506.506zm-2.156-.281 1.219 1.219-4.575 4.575c-2.516 2.516-4.586 4.575-4.598 4.575-.015 0-.064-.206-.112-.461-.124-.634-.113-.626-.746-.626h-.487v-.487c0-.634.007-.626-.63-.746-.251-.049-.457-.098-.457-.113 0-.026 9.124-9.154 9.15-9.154.011 0 .566.548 1.238 1.219zm.806 3.27c.705.285 1.076.563 1.204.893.079.21.056.405-.079.683-.285.581-1.035.983-2.164 1.155-.48.071-2.122.154-2.37.116l-.184-.03 1.515-1.515c1.234-1.234 1.526-1.511 1.59-1.492.041.015.262.098.488.191zM10.63 21.704l.457.086v.495c0 .472.004.503.09.604.09.105.098.105.608.124l.518.019.101.506c.098.473.098.51.041.57-.037.034-.308.116-.626.191l-.563.131-.795-.791c-.435-.431-.788-.806-.78-.829s.067-.278.131-.566c.124-.529.188-.671.296-.641.034.011.266.056.521.101zm-.169 2.891c-.105.045-1.219.296-1.238.277-.015-.011.225-1.117.274-1.256.011-.038.188.112.525.45.412.413.491.506.439.529z"/></symbol><symbol id="icon-percent" viewBox="0 0 32 32"><path fill="#fff" style="fill:var(--color3,#fff);stroke:var(--color1,#aa43a2)" stroke="#aa43a2" stroke-width=".762" d="M31.619 16c0 8.626-6.993 15.619-15.619 15.619S.381 24.626.381 16 7.374.381 16 .381 31.619 7.374 31.619 16z"/><path fill="#aa43a2" style="fill:var(--color1,#aa43a2)" d="M27.429 16c0 6.312-5.117 11.429-11.429 11.429S4.571 22.312 4.571 16 9.688 4.571 16 4.571 27.429 9.688 27.429 16z"/><path fill="#fff" style="fill:var(--color3,#fff)" d="M19.396 10.332c-.099.055-1.058 1.416-6.643 9.453-.66.95-.909 1.34-.909 1.433 0 .373.412.61.76.441.113-.059.606-.755 6.656-9.457.895-1.284.913-1.318.891-1.501-.027-.246-.181-.39-.443-.411a.576.576 0 0 0-.312.042zM12.878 11.345a1.85 1.85 0 0 0-1.245.772c-.236.351-.326.687-.306 1.134.015.328.027.386.178.687.558 1.123 2.039 1.373 2.915.494a1.81 1.81 0 0 0-.477-2.917c-.143-.073-.345-.143-.446-.154s-.225-.027-.279-.035a2.604 2.604 0 0 0-.341.019zm.539.907c.268.077.551.355.616.602.074.262.035.575-.101.787-.384.621-1.334.567-1.644-.089a.958.958 0 0 1 .64-1.327c.182-.042.264-.039.489.027zM17.876 17.615c-.31.081-.578.24-.819.48-1.144 1.143-.341 3.103 1.272 3.099.745 0 1.334-.368 1.66-1.03.14-.275.151-.329.163-.697.019-.445-.054-.748-.26-1.065-.233-.368-.714-.709-1.133-.806a2.145 2.145 0 0 0-.884.019zm.787.876c.097.031.229.12.341.229.601.6.186 1.6-.667 1.592a.88.88 0 0 1-.838-.531c-.357-.763.338-1.534 1.164-1.29z"/></symbol><symbol id="icon-student" viewBox="0 0 32 32"><path fill="#aa43a2" style="fill:var(--color1,#aa43a2);stroke:var(--color1,#aa43a2)" stroke="#aa43a2" stroke-width="1.067" d="M31.467 16c0 8.542-6.925 15.467-15.467 15.467S.533 24.542.533 16C.533 7.458 7.458.533 16 .533S31.467 7.458 31.467 16z"/><path fill="#fff" style="fill:var(--color3,#fff)" d="M13.798 14.095a.347.347 0 0 0 .346-.349v-.836c0-.193-.155-.349-.346-.349s-.346.156-.346.349v.836c0 .193.155.349.346.349zM18.188 12.56a.347.347 0 0 0-.346.349v.836c0 .193.155.349.346.349s.346-.156.346-.349v-.836a.347.347 0 0 0-.346-.349zM15.993 16.898c.717 0 1.301-.589 1.301-1.314 0-.193-.155-.349-.346-.349s-.346.156-.346.349c0 .339-.273.615-.609.615s-.609-.276-.609-.615c0-.193-.155-.349-.346-.349s-.346.156-.346.349a1.31 1.31 0 0 0 1.301 1.314z"/><path fill="#fff" style="fill:var(--color3,#fff)" d="M20.035 19.9h-.516l-1.317-.723v-.624a4.883 4.883 0 0 0 2.512-3.26 1.888 1.888 0 0 0 1.649-1.878c0-.513-.203-.979-.533-1.32a.348.348 0 0 0 .078-.221V9.138c0-1.514-1.172-2.773-2.648-2.89a2.24 2.24 0 0 0-1.804-.916h-3.658c-2.052 0-3.721 1.686-3.721 3.757v2.785a.35.35 0 0 0 .076.218 1.896 1.896 0 0 0-.531 1.322c0 .966.721 1.766 1.649 1.878a4.888 4.888 0 0 0 2.512 3.26v.624l-1.317.723h-.502c-1.304 0-2.365 1.071-2.365 2.388v3.496c0 .193.155.349.346.349h1.419c.191 0 .346-.156.346-.349s-.155-.349-.346-.349h-1.073v-3.147c0-.932.75-1.689 1.673-1.689h.475l2.13 1.604a.347.347 0 0 0 .267.064l.192.761-.468 2.408h-1.583c-.191 0-.346.156-.346.349s.155.349.346.349h9.076a.347.347 0 0 0 .346-.349v-3.496c0-1.317-1.061-2.388-2.365-2.388zm-1.244.396-1.544 1.162-.719-.759 1.346-.906.917.503zm-2.225 1.452-.232.919h-.681l-.232-.919.573-.604.573.604zm-2.09-2.55v-.351a4.832 4.832 0 0 0 1.518.246c.506 0 1.031-.083 1.518-.246v.351l-1.518 1.022-1.518-1.022zm5.606-4.883a.063.063 0 0 1-.062.063h-2.752a.063.063 0 0 1-.062-.063v-2.027c0-.035.028-.063.062-.063h2.752c.034 0 .062.028.062.063v2.027zm1.59-.899c0 .577-.408 1.06-.948 1.169a.758.758 0 0 0 .05-.271v-2.027l-.002-.03c.515.128.899.599.899 1.158zm-.455-4.277v2.387h-.505a5.008 5.008 0 0 0-1.011-2.042l.001-.014c.008-.14.005-.083.005-1.865 0-.174-.023-.383-.074-.578l-.001-.005a2.21 2.21 0 0 1 1.585 2.117zM19.5 10.387c.219.348.388.729.498 1.139h-1.309c.353-.304.634-.693.81-1.139zm-9.186 3.029c0-.561.38-1.031.899-1.159l-.002.03v2.027c0 .096.018.187.05.271a1.192 1.192 0 0 1-.948-1.169zm.455-1.89V9.091c0-1.687 1.359-3.059 3.029-3.059h3.658c.852 0 1.558.698 1.558 1.574v1.696c0 1.218-.979 2.225-2.203 2.225h-6.042zm4.7.699h1.048c-.004.053-.003-.009-.003.727h-1.042c0-.736.001-.674-.003-.727zm-3.565 2.09v-2.027c0-.035.028-.063.062-.063h2.752c.034 0 .062.028.062.063v2.027a.063.063 0 0 1-.062.063h-2.752a.063.063 0 0 1-.062-.063zm.028.759a.388.388 0 0 0 .034.002h2.752a.759.759 0 0 0 .754-.761v-.664h1.042v.664c0 .42.338.761.754.761h2.752l.034-.002a4.15 4.15 0 0 1-4.061 3.32 4.149 4.149 0 0 1-4.061-3.32zm2.806 6.383-1.544-1.162.917-.503 1.346.906-.719.759zm.528 3.978.402-2.069h.649l.402 2.069h-1.454zm6.442 0h-4.284l-.468-2.408.192-.761a.345.345 0 0 0 .267-.064l2.13-1.604h.489c.922 0 1.673.758 1.673 1.689v3.147z"/></symbol></defs></svg>