<svg width="1365" height="585" viewBox="0 0 1365 585" fill="none" xmlns="http://www.w3.org/2000/svg">
<g clip-path="url(#clip0_126_104)">
<path opacity="0.5" d="M617.885 88.4834L605.608 91.5933L602.315 82.1676L615.44 78.8429L613.053 69.4284L589.787 75.3217L590.65 77.7911L599.51 103.157L620.272 97.8976L617.885 88.4834ZM624.086 112.933L624.048 112.955L612.997 112.741L610.432 105.4L601.118 107.759L606.167 122.212L626.53 122.751L626.57 122.729L624.086 112.933Z" fill="#AA43A2"/>
<path opacity="0.8" d="M573.66 40.2065L578.424 39L579.641 43.8013L583.998 42.6976L582.781 37.8963L587.544 36.6897L591.231 51.2294L586.468 52.436L585.233 47.5673L580.876 48.671L582.111 53.5397L577.348 54.7462L573.66 40.2065ZM595.031 39.9247L590.838 40.9869L589.615 36.1651L602.767 32.8335L603.99 37.6553L599.795 38.718L602.26 48.4359L597.496 49.6426L595.031 39.9247L595.031 39.9247ZM604.854 32.3048L609.822 31.0466L614.172 35.3816L615.929 29.4995L620.898 28.2409L624.585 42.7806L619.841 43.9824L618.013 36.7756L616.047 42.7754L615.965 42.7962L611.375 38.4571L613.202 45.664L608.542 46.8446L604.854 32.3049L604.854 32.3048ZM623.268 27.6405L628.033 26.4336L630.501 36.1675L637.2 34.4706L638.419 39.2764L626.955 42.1802L623.268 27.6405Z" fill="#AA43A2"/>
<path opacity="0.8" d="M617.885 88.4851L620.273 97.9002L631.71 95.0032L633.728 107.487L624.089 112.945L626.573 122.741L644.256 112.569L643.992 110.942L639.889 85.6023L639.474 83.0166L636.971 83.6505L617.885 88.4851ZM613.052 69.4283L615.44 78.8438L637.874 73.1611L637.523 70.9975L636.736 66.1173L636.318 63.5351L613.052 69.4283Z" fill="#AA43A2"/>
</g>
<path opacity="0.8" d="M601.717 547.06L597.714 540.133L607.66 534.386L603.279 526.807L585.874 536.864L598.255 558.287L615.661 548.229L611.663 541.313L601.717 547.06ZM625.552 524.048L632.505 520.03L628.125 512.45L610.717 522.509L615.098 530.088C618.795 531.109 620.664 531.54 626.01 533.016C624.041 534.153 619.103 537.017 619.102 537.016L623.099 543.931L640.506 533.873L636.509 526.957L625.552 524.048ZM650.224 509.792L657.177 505.774L652.796 498.195L635.388 508.253L639.769 515.833C643.465 516.853 645.335 517.284 650.681 518.76C648.713 519.897 643.773 522.761 643.773 522.761L647.77 529.676L665.178 519.617L661.181 512.701L650.224 509.792Z" fill="#AA43A2"/>
<g clip-path="url(#clip1_126_104)">
<path d="M1234.06 146.816L1199 88.9144L1258.33 60.0054L1282.39 123.187L1261.48 141.857L1234.06 146.816ZM1276.33 122.104L1255.63 67.9658L1231.33 79.8139L1259.43 136.958L1276.33 122.104ZM1232.78 88.5279L1226.88 91.4053L1241.96 122.496L1228.98 124.96L1232.47 132.048L1252.15 128.257L1232.78 88.5279Z" fill="#FEC830"/>
<path d="M1232.47 132.046L1228.98 124.958C1228.98 124.958 1237.3 123.45 1241.96 122.494L1226.89 91.4264L1232.79 88.5489L1252.15 128.255L1232.47 132.046Z" fill="white"/>
<path d="M1231.32 79.7887L1255.61 67.9405L1276.32 122.079L1259.24 137.023L1231.32 79.7887ZM1270.83 113.993L1262.96 93.8125L1251.81 100.885L1246.75 90.5254L1259.32 84.3407L1256.38 77.0161L1237.43 86.3728L1250.25 112.01L1260.76 104.447L1263.4 110.261L1253.33 118.979L1256.87 125.953L1270.83 113.993Z" fill="#FDD83C"/>
</g>
<g filter="url(#filter0_d_126_104)">
<circle cx="1290" cy="341.908" r="20" fill="url(#paint0_linear_126_104)"/>
</g>
<g filter="url(#filter1_d_126_104)">
<circle cx="781" cy="50.9076" r="20" fill="url(#paint1_linear_126_104)"/>
</g>
<g filter="url(#filter2_d_126_104)">
<circle cx="50" cy="54.9076" r="20" fill="url(#paint2_linear_126_104)"/>
</g>
<g filter="url(#filter3_d_126_104)">
<circle cx="723.563" cy="342.4" r="16" transform="rotate(-110 723.563 342.4)" fill="url(#paint3_linear_126_104)"/>
</g>
<g filter="url(#filter4_f_126_104)">
<circle cx="429.534" cy="509.79" r="11" transform="rotate(-110.165 429.534 509.79)" fill="url(#paint4_linear_126_104)"/>
</g>
<g filter="url(#filter5_d_126_104)">
<circle cx="184.534" cy="412.79" r="11" transform="rotate(-110.165 184.534 412.79)" fill="url(#paint5_linear_126_104)"/>
</g>
<g filter="url(#filter6_f_126_104)">
<circle cx="1140.98" cy="190.09" r="10" transform="rotate(-110 1140.98 190.09)" fill="url(#paint6_linear_126_104)"/>
</g>
<g filter="url(#filter7_f_126_104)">
<circle cx="1351.88" cy="59.5766" r="6.5" transform="rotate(-110 1351.88 59.5766)" fill="url(#paint7_linear_126_104)"/>
</g>
<circle cx="1265" cy="574.908" r="10" fill="url(#paint8_linear_126_104)"/>
<circle cx="417" cy="133.908" r="10" fill="url(#paint9_linear_126_104)"/>
<defs>
<filter id="filter0_d_126_104" x="1240" y="291.908" width="100" height="100" filterUnits="userSpaceOnUse" color-interpolation-filters="sRGB">
<feFlood flood-opacity="0" result="BackgroundImageFix"/>
<feColorMatrix in="SourceAlpha" type="matrix" values="0 0 0 0 0 0 0 0 0 0 0 0 0 0 0 0 0 0 127 0" result="hardAlpha"/>
<feOffset/>
<feGaussianBlur stdDeviation="15"/>
<feComposite in2="hardAlpha" operator="out"/>
<feColorMatrix type="matrix" values="0 0 0 0 0.666667 0 0 0 0 0.262745 0 0 0 0 0.635294 0 0 0 0.45 0"/>
<feBlend mode="normal" in2="BackgroundImageFix" result="effect1_dropShadow_126_104"/>
<feBlend mode="normal" in="SourceGraphic" in2="effect1_dropShadow_126_104" result="shape"/>
</filter>
<filter id="filter1_d_126_104" x="731" y="0.907593" width="100" height="100" filterUnits="userSpaceOnUse" color-interpolation-filters="sRGB">
<feFlood flood-opacity="0" result="BackgroundImageFix"/>
<feColorMatrix in="SourceAlpha" type="matrix" values="0 0 0 0 0 0 0 0 0 0 0 0 0 0 0 0 0 0 127 0" result="hardAlpha"/>
<feOffset/>
<feGaussianBlur stdDeviation="15"/>
<feComposite in2="hardAlpha" operator="out"/>
<feColorMatrix type="matrix" values="0 0 0 0 0.666667 0 0 0 0 0.262745 0 0 0 0 0.635294 0 0 0 0.45 0"/>
<feBlend mode="normal" in2="BackgroundImageFix" result="effect1_dropShadow_126_104"/>
<feBlend mode="normal" in="SourceGraphic" in2="effect1_dropShadow_126_104" result="shape"/>
</filter>
<filter id="filter2_d_126_104" x="0" y="4.90759" width="100" height="100" filterUnits="userSpaceOnUse" color-interpolation-filters="sRGB">
<feFlood flood-opacity="0" result="BackgroundImageFix"/>
<feColorMatrix in="SourceAlpha" type="matrix" values="0 0 0 0 0 0 0 0 0 0 0 0 0 0 0 0 0 0 127 0" result="hardAlpha"/>
<feOffset/>
<feGaussianBlur stdDeviation="15"/>
<feComposite in2="hardAlpha" operator="out"/>
<feColorMatrix type="matrix" values="0 0 0 0 0.666667 0 0 0 0 0.262745 0 0 0 0 0.635294 0 0 0 0.45 0"/>
<feBlend mode="normal" in2="BackgroundImageFix" result="effect1_dropShadow_126_104"/>
<feBlend mode="normal" in="SourceGraphic" in2="effect1_dropShadow_126_104" result="shape"/>
</filter>
<filter id="filter3_d_126_104" x="677.558" y="296.396" width="92.0088" height="92.0087" filterUnits="userSpaceOnUse" color-interpolation-filters="sRGB">
<feFlood flood-opacity="0" result="BackgroundImageFix"/>
<feColorMatrix in="SourceAlpha" type="matrix" values="0 0 0 0 0 0 0 0 0 0 0 0 0 0 0 0 0 0 127 0" result="hardAlpha"/>
<feOffset/>
<feGaussianBlur stdDeviation="15"/>
<feComposite in2="hardAlpha" operator="out"/>
<feColorMatrix type="matrix" values="0 0 0 0 0.666667 0 0 0 0 0.262745 0 0 0 0 0.635294 0 0 0 0.45 0"/>
<feBlend mode="normal" in2="BackgroundImageFix" result="effect1_dropShadow_126_104"/>
<feBlend mode="normal" in="SourceGraphic" in2="effect1_dropShadow_126_104" result="shape"/>
</filter>
<filter id="filter4_f_126_104" x="412.531" y="492.787" width="34.0061" height="34.006" filterUnits="userSpaceOnUse" color-interpolation-filters="sRGB">
<feFlood flood-opacity="0" result="BackgroundImageFix"/>
<feBlend mode="normal" in="SourceGraphic" in2="BackgroundImageFix" result="shape"/>
<feGaussianBlur stdDeviation="3" result="effect1_foregroundBlur_126_104"/>
</filter>
<filter id="filter5_d_126_104" x="143.531" y="371.787" width="82.0061" height="82.006" filterUnits="userSpaceOnUse" color-interpolation-filters="sRGB">
<feFlood flood-opacity="0" result="BackgroundImageFix"/>
<feColorMatrix in="SourceAlpha" type="matrix" values="0 0 0 0 0 0 0 0 0 0 0 0 0 0 0 0 0 0 127 0" result="hardAlpha"/>
<feOffset/>
<feGaussianBlur stdDeviation="15"/>
<feComposite in2="hardAlpha" operator="out"/>
<feColorMatrix type="matrix" values="0 0 0 0 0.666667 0 0 0 0 0.262745 0 0 0 0 0.635294 0 0 0 0.45 0"/>
<feBlend mode="normal" in2="BackgroundImageFix" result="effect1_dropShadow_126_104"/>
<feBlend mode="normal" in="SourceGraphic" in2="effect1_dropShadow_126_104" result="shape"/>
</filter>
<filter id="filter6_f_126_104" x="1124.97" y="174.088" width="32.0054" height="32.0054" filterUnits="userSpaceOnUse" color-interpolation-filters="sRGB">
<feFlood flood-opacity="0" result="BackgroundImageFix"/>
<feBlend mode="normal" in="SourceGraphic" in2="BackgroundImageFix" result="shape"/>
<feGaussianBlur stdDeviation="3" result="effect1_foregroundBlur_126_104"/>
</filter>
<filter id="filter7_f_126_104" x="1339.38" y="47.0748" width="25.0037" height="25.0035" filterUnits="userSpaceOnUse" color-interpolation-filters="sRGB">
<feFlood flood-opacity="0" result="BackgroundImageFix"/>
<feBlend mode="normal" in="SourceGraphic" in2="BackgroundImageFix" result="shape"/>
<feGaussianBlur stdDeviation="3" result="effect1_foregroundBlur_126_104"/>
</filter>
<linearGradient id="paint0_linear_126_104" x1="1290" y1="331.408" x2="1290" y2="368.408" gradientUnits="userSpaceOnUse">
<stop stop-color="#AA43A2"/>
<stop offset="1" stop-color="#D48569"/>
</linearGradient>
<linearGradient id="paint1_linear_126_104" x1="781" y1="40.4076" x2="781" y2="77.4076" gradientUnits="userSpaceOnUse">
<stop stop-color="#AA43A2"/>
<stop offset="1" stop-color="#D48569"/>
</linearGradient>
<linearGradient id="paint2_linear_126_104" x1="50" y1="44.4076" x2="50" y2="81.4076" gradientUnits="userSpaceOnUse">
<stop stop-color="#AA43A2"/>
<stop offset="1" stop-color="#D48569"/>
</linearGradient>
<linearGradient id="paint3_linear_126_104" x1="723.563" y1="334" x2="723.563" y2="363.6" gradientUnits="userSpaceOnUse">
<stop stop-color="#AA43A2"/>
<stop offset="1" stop-color="#D48569"/>
</linearGradient>
<linearGradient id="paint4_linear_126_104" x1="429.534" y1="504.015" x2="429.534" y2="524.365" gradientUnits="userSpaceOnUse">
<stop stop-color="#AA43A2"/>
<stop offset="1" stop-color="#D48569"/>
</linearGradient>
<linearGradient id="paint5_linear_126_104" x1="184.534" y1="407.015" x2="184.534" y2="427.365" gradientUnits="userSpaceOnUse">
<stop stop-color="#AA43A2"/>
<stop offset="1" stop-color="#D48569"/>
</linearGradient>
<linearGradient id="paint6_linear_126_104" x1="1140.98" y1="184.84" x2="1140.98" y2="203.34" gradientUnits="userSpaceOnUse">
<stop stop-color="#AA43A2"/>
<stop offset="1" stop-color="#D48569"/>
</linearGradient>
<linearGradient id="paint7_linear_126_104" x1="1351.88" y1="56.1641" x2="1351.88" y2="68.1891" gradientUnits="userSpaceOnUse">
<stop stop-color="#AA43A2"/>
<stop offset="1" stop-color="#D48569"/>
</linearGradient>
<linearGradient id="paint8_linear_126_104" x1="1265" y1="569.658" x2="1265" y2="588.158" gradientUnits="userSpaceOnUse">
<stop stop-color="#AA43A2"/>
<stop offset="1" stop-color="#D48569"/>
</linearGradient>
<linearGradient id="paint9_linear_126_104" x1="417" y1="128.658" x2="417" y2="147.158" gradientUnits="userSpaceOnUse">
<stop stop-color="#AA43A2"/>
<stop offset="1" stop-color="#D48569"/>
</linearGradient>
<clipPath id="clip0_126_104">
<rect width="77" height="110" fill="white" transform="matrix(0.969383 -0.245553 0.245822 0.969315 562 34.9076)"/>
</clipPath>
<clipPath id="clip1_126_104">
<rect width="66" height="75" fill="white" transform="translate(1199 88.9076) rotate(-26)"/>
</clipPath>
</defs>
</svg>
