<svg width="1365" height="584" viewBox="0 0 1365 584" fill="none" xmlns="http://www.w3.org/2000/svg">
<g clip-path="url(#clip0_104_5)">
<path opacity="0.5" d="M617.885 87.5758L605.608 90.6857L602.315 81.26L615.44 77.9353L613.053 68.5208L589.788 74.4141L590.65 76.8835L599.51 102.249L620.273 96.99L617.885 87.5758ZM624.086 112.026L624.048 112.047L612.997 111.834L610.432 104.493L601.119 106.852L606.167 121.305L626.531 121.844L626.57 121.821L624.086 112.026Z" fill="#AA43A2"/>
<path opacity="0.8" d="M573.661 39.2991L578.424 38.0925L579.641 42.8938L583.999 41.7901L582.781 36.9888L587.544 35.7822L591.232 50.3219L586.468 51.5285L585.234 46.6599L580.876 47.7636L582.111 52.6322L577.348 53.8387L573.661 39.2991ZM595.031 39.0173L590.838 40.0794L589.615 35.2576L602.768 31.926L603.991 36.7478L599.795 37.8105L602.26 47.5284L597.496 48.7351L595.032 39.0172L595.031 39.0173ZM604.855 31.3973L609.822 30.1391L614.173 34.4742L615.929 28.592L620.898 27.3334L624.585 41.8731L619.841 43.0749L618.013 35.8681L616.047 41.8679L615.965 41.8887L611.375 37.5497L613.203 44.7565L608.542 45.9371L604.855 31.3974L604.855 31.3973ZM623.268 26.733L628.033 25.5261L630.501 35.26L637.2 33.5631L638.419 38.3689L626.956 41.2727L623.268 26.733Z" fill="#AA43A2"/>
<path opacity="0.8" d="M617.886 87.5778L620.273 96.9928L631.71 94.0958L633.729 106.58L624.089 112.038L626.573 121.833L644.256 111.661L643.992 110.035L639.889 84.695L639.474 82.1092L636.972 82.7431L617.886 87.5778ZM613.053 68.521L615.441 77.9364L637.874 72.2537L637.524 70.0902L636.736 65.21L636.318 62.6277L613.053 68.521Z" fill="#AA43A2"/>
</g>
<path opacity="0.8" d="M601.717 546.152L597.714 539.226L607.66 533.478L603.279 525.899L585.874 535.956L598.255 557.379L615.661 547.322L611.663 540.405L601.717 546.152ZM625.552 523.14L632.505 519.122L628.125 511.543L610.717 521.601L615.098 529.18C618.795 530.201 620.664 530.632 626.01 532.108C624.041 533.246 619.103 536.109 619.102 536.109L623.099 543.024L640.506 532.965L636.509 526.049L625.552 523.14ZM650.224 508.884L657.177 504.866L652.796 497.287L635.388 507.346L639.769 514.925C643.465 515.946 645.335 516.376 650.681 517.852C648.713 518.99 643.773 521.854 643.773 521.853L647.77 528.768L665.178 518.709L661.181 511.793L650.224 508.884Z" fill="#AA43A2"/>
<g clip-path="url(#clip1_104_5)">
<path d="M1234.06 145.909L1199 88.0068L1258.33 59.0978L1282.39 122.279L1261.48 140.95L1234.06 145.909ZM1276.33 121.196L1255.63 67.0582L1231.33 78.9063L1259.43 136.051L1276.33 121.196ZM1232.78 87.6203L1226.88 90.4977L1241.96 121.589L1228.98 124.052L1232.47 131.14L1252.15 127.349L1232.78 87.6203Z" fill="#FEC830"/>
<path d="M1232.47 131.138L1228.98 124.05C1228.98 124.05 1237.3 122.543 1241.96 121.586L1226.89 90.5188L1232.79 87.6413L1252.15 127.347L1232.47 131.138Z" fill="white"/>
<path d="M1231.32 78.8811L1255.61 67.0329L1276.32 121.171L1259.24 136.116L1231.32 78.8811ZM1270.83 113.085L1262.96 92.9049L1251.81 99.9778L1246.75 89.6178L1259.32 83.4331L1256.38 76.1085L1237.43 85.4652L1250.25 111.102L1260.76 103.54L1263.4 109.354L1253.33 118.072L1256.87 125.045L1270.83 113.085Z" fill="#FDD83C"/>
</g>
<g filter="url(#filter0_d_104_5)">
<circle cx="1290" cy="341" r="20" fill="url(#paint0_linear_104_5)"/>
</g>
<g filter="url(#filter1_d_104_5)">
<circle cx="781" cy="50" r="20" fill="url(#paint1_linear_104_5)"/>
</g>
<g filter="url(#filter2_d_104_5)">
<circle cx="50" cy="54" r="20" fill="url(#paint2_linear_104_5)"/>
</g>
<g filter="url(#filter3_d_104_5)">
<circle cx="723.563" cy="341.493" r="16" transform="rotate(-110 723.563 341.493)" fill="url(#paint3_linear_104_5)"/>
</g>
<g filter="url(#filter4_f_104_5)">
<circle cx="429.534" cy="508.882" r="11" transform="rotate(-110.165 429.534 508.882)" fill="url(#paint4_linear_104_5)"/>
</g>
<g filter="url(#filter5_d_104_5)">
<circle cx="184.534" cy="411.882" r="11" transform="rotate(-110.165 184.534 411.882)" fill="url(#paint5_linear_104_5)"/>
</g>
<g filter="url(#filter6_f_104_5)">
<circle cx="1140.98" cy="189.183" r="10" transform="rotate(-110 1140.98 189.183)" fill="url(#paint6_linear_104_5)"/>
</g>
<g filter="url(#filter7_f_104_5)">
<circle cx="1351.88" cy="58.6689" r="6.5" transform="rotate(-110 1351.88 58.6689)" fill="url(#paint7_linear_104_5)"/>
</g>
<circle cx="1265" cy="574" r="10" fill="url(#paint8_linear_104_5)"/>
<circle cx="417" cy="133" r="10" fill="url(#paint9_linear_104_5)"/>
<defs>
<filter id="filter0_d_104_5" x="1240" y="291" width="100" height="100" filterUnits="userSpaceOnUse" color-interpolation-filters="sRGB">
<feFlood flood-opacity="0" result="BackgroundImageFix"/>
<feColorMatrix in="SourceAlpha" type="matrix" values="0 0 0 0 0 0 0 0 0 0 0 0 0 0 0 0 0 0 127 0" result="hardAlpha"/>
<feOffset/>
<feGaussianBlur stdDeviation="15"/>
<feComposite in2="hardAlpha" operator="out"/>
<feColorMatrix type="matrix" values="0 0 0 0 0.666667 0 0 0 0 0.262745 0 0 0 0 0.635294 0 0 0 0.45 0"/>
<feBlend mode="normal" in2="BackgroundImageFix" result="effect1_dropShadow_104_5"/>
<feBlend mode="normal" in="SourceGraphic" in2="effect1_dropShadow_104_5" result="shape"/>
</filter>
<filter id="filter1_d_104_5" x="731" y="0" width="100" height="100" filterUnits="userSpaceOnUse" color-interpolation-filters="sRGB">
<feFlood flood-opacity="0" result="BackgroundImageFix"/>
<feColorMatrix in="SourceAlpha" type="matrix" values="0 0 0 0 0 0 0 0 0 0 0 0 0 0 0 0 0 0 127 0" result="hardAlpha"/>
<feOffset/>
<feGaussianBlur stdDeviation="15"/>
<feComposite in2="hardAlpha" operator="out"/>
<feColorMatrix type="matrix" values="0 0 0 0 0.666667 0 0 0 0 0.262745 0 0 0 0 0.635294 0 0 0 0.45 0"/>
<feBlend mode="normal" in2="BackgroundImageFix" result="effect1_dropShadow_104_5"/>
<feBlend mode="normal" in="SourceGraphic" in2="effect1_dropShadow_104_5" result="shape"/>
</filter>
<filter id="filter2_d_104_5" x="0" y="4" width="100" height="100" filterUnits="userSpaceOnUse" color-interpolation-filters="sRGB">
<feFlood flood-opacity="0" result="BackgroundImageFix"/>
<feColorMatrix in="SourceAlpha" type="matrix" values="0 0 0 0 0 0 0 0 0 0 0 0 0 0 0 0 0 0 127 0" result="hardAlpha"/>
<feOffset/>
<feGaussianBlur stdDeviation="15"/>
<feComposite in2="hardAlpha" operator="out"/>
<feColorMatrix type="matrix" values="0 0 0 0 0.666667 0 0 0 0 0.262745 0 0 0 0 0.635294 0 0 0 0.45 0"/>
<feBlend mode="normal" in2="BackgroundImageFix" result="effect1_dropShadow_104_5"/>
<feBlend mode="normal" in="SourceGraphic" in2="effect1_dropShadow_104_5" result="shape"/>
</filter>
<filter id="filter3_d_104_5" x="677.559" y="295.488" width="92.0083" height="92.0088" filterUnits="userSpaceOnUse" color-interpolation-filters="sRGB">
<feFlood flood-opacity="0" result="BackgroundImageFix"/>
<feColorMatrix in="SourceAlpha" type="matrix" values="0 0 0 0 0 0 0 0 0 0 0 0 0 0 0 0 0 0 127 0" result="hardAlpha"/>
<feOffset/>
<feGaussianBlur stdDeviation="15"/>
<feComposite in2="hardAlpha" operator="out"/>
<feColorMatrix type="matrix" values="0 0 0 0 0.666667 0 0 0 0 0.262745 0 0 0 0 0.635294 0 0 0 0.45 0"/>
<feBlend mode="normal" in2="BackgroundImageFix" result="effect1_dropShadow_104_5"/>
<feBlend mode="normal" in="SourceGraphic" in2="effect1_dropShadow_104_5" result="shape"/>
</filter>
<filter id="filter4_f_104_5" x="412.531" y="491.879" width="34.0059" height="34.0059" filterUnits="userSpaceOnUse" color-interpolation-filters="sRGB">
<feFlood flood-opacity="0" result="BackgroundImageFix"/>
<feBlend mode="normal" in="SourceGraphic" in2="BackgroundImageFix" result="shape"/>
<feGaussianBlur stdDeviation="3" result="effect1_foregroundBlur_104_5"/>
</filter>
<filter id="filter5_d_104_5" x="143.531" y="370.879" width="82.0059" height="82.0059" filterUnits="userSpaceOnUse" color-interpolation-filters="sRGB">
<feFlood flood-opacity="0" result="BackgroundImageFix"/>
<feColorMatrix in="SourceAlpha" type="matrix" values="0 0 0 0 0 0 0 0 0 0 0 0 0 0 0 0 0 0 127 0" result="hardAlpha"/>
<feOffset/>
<feGaussianBlur stdDeviation="15"/>
<feComposite in2="hardAlpha" operator="out"/>
<feColorMatrix type="matrix" values="0 0 0 0 0.666667 0 0 0 0 0.262745 0 0 0 0 0.635294 0 0 0 0.45 0"/>
<feBlend mode="normal" in2="BackgroundImageFix" result="effect1_dropShadow_104_5"/>
<feBlend mode="normal" in="SourceGraphic" in2="effect1_dropShadow_104_5" result="shape"/>
</filter>
<filter id="filter6_f_104_5" x="1124.97" y="173.18" width="32.0054" height="32.0054" filterUnits="userSpaceOnUse" color-interpolation-filters="sRGB">
<feFlood flood-opacity="0" result="BackgroundImageFix"/>
<feBlend mode="normal" in="SourceGraphic" in2="BackgroundImageFix" result="shape"/>
<feGaussianBlur stdDeviation="3" result="effect1_foregroundBlur_104_5"/>
</filter>
<filter id="filter7_f_104_5" x="1339.38" y="46.167" width="25.0034" height="25.0037" filterUnits="userSpaceOnUse" color-interpolation-filters="sRGB">
<feFlood flood-opacity="0" result="BackgroundImageFix"/>
<feBlend mode="normal" in="SourceGraphic" in2="BackgroundImageFix" result="shape"/>
<feGaussianBlur stdDeviation="3" result="effect1_foregroundBlur_104_5"/>
</filter>
<linearGradient id="paint0_linear_104_5" x1="1290" y1="330.5" x2="1290" y2="367.5" gradientUnits="userSpaceOnUse">
<stop stop-color="#AA43A2"/>
<stop offset="1" stop-color="#D48569"/>
</linearGradient>
<linearGradient id="paint1_linear_104_5" x1="781" y1="39.5" x2="781" y2="76.5" gradientUnits="userSpaceOnUse">
<stop stop-color="#AA43A2"/>
<stop offset="1" stop-color="#D48569"/>
</linearGradient>
<linearGradient id="paint2_linear_104_5" x1="50" y1="43.5" x2="50" y2="80.5" gradientUnits="userSpaceOnUse">
<stop stop-color="#AA43A2"/>
<stop offset="1" stop-color="#D48569"/>
</linearGradient>
<linearGradient id="paint3_linear_104_5" x1="723.563" y1="333.093" x2="723.563" y2="362.693" gradientUnits="userSpaceOnUse">
<stop stop-color="#AA43A2"/>
<stop offset="1" stop-color="#D48569"/>
</linearGradient>
<linearGradient id="paint4_linear_104_5" x1="429.534" y1="503.107" x2="429.534" y2="523.457" gradientUnits="userSpaceOnUse">
<stop stop-color="#AA43A2"/>
<stop offset="1" stop-color="#D48569"/>
</linearGradient>
<linearGradient id="paint5_linear_104_5" x1="184.534" y1="406.107" x2="184.534" y2="426.457" gradientUnits="userSpaceOnUse">
<stop stop-color="#AA43A2"/>
<stop offset="1" stop-color="#D48569"/>
</linearGradient>
<linearGradient id="paint6_linear_104_5" x1="1140.98" y1="183.933" x2="1140.98" y2="202.433" gradientUnits="userSpaceOnUse">
<stop stop-color="#AA43A2"/>
<stop offset="1" stop-color="#D48569"/>
</linearGradient>
<linearGradient id="paint7_linear_104_5" x1="1351.88" y1="55.2564" x2="1351.88" y2="67.2814" gradientUnits="userSpaceOnUse">
<stop stop-color="#AA43A2"/>
<stop offset="1" stop-color="#D48569"/>
</linearGradient>
<linearGradient id="paint8_linear_104_5" x1="1265" y1="568.75" x2="1265" y2="587.25" gradientUnits="userSpaceOnUse">
<stop stop-color="#AA43A2"/>
<stop offset="1" stop-color="#D48569"/>
</linearGradient>
<linearGradient id="paint9_linear_104_5" x1="417" y1="127.75" x2="417" y2="146.25" gradientUnits="userSpaceOnUse">
<stop stop-color="#AA43A2"/>
<stop offset="1" stop-color="#D48569"/>
</linearGradient>
<clipPath id="clip0_104_5">
<rect width="77" height="110" fill="white" transform="matrix(0.969383 -0.245553 0.245822 0.969315 562 34)"/>
</clipPath>
<clipPath id="clip1_104_5">
<rect width="66" height="75" fill="white" transform="translate(1199 88) rotate(-26)"/>
</clipPath>
</defs>
</svg>
