<svg width="320" height="1132" viewBox="0 0 320 1132" fill="none" xmlns="http://www.w3.org/2000/svg">
<path d="M270.171 1111.91C245.744 1109.4 225 1068.28 203.218 1022.97C181.435 977.668 158.488 928.335 174.504 904.05C190.354 879.639 245 880.148 300.599 886.355C356.324 892.396 413.127 903.968 421.537 930.768C430.115 957.694 390.258 999.556 356.316 1038.82C322.373 1078.09 294.43 1114.3 270.171 1111.91Z" fill="#AA43A2" fill-opacity="0.08"/>
<path d="M-89.4423 181.75C-100.94 162.844 -82.6569 125.6 -61.9238 85.3303C-41.1908 45.061 -18.1959 1.76672 8.00311 0.0652008C34.2022 -1.82538 63.6054 37.6877 89.4275 80.982C115.438 124.276 138.056 171.352 123.354 191.959C108.653 212.755 56.82 206.895 10.0764 203.87C-36.6672 200.845 -77.9448 200.467 -89.4423 181.75Z" fill="#AA43A2" fill-opacity="0.08"/>
</svg>
